# xmcd
#
# Track frame offsets: 
#        150
#        17043
#        31894
#        52192
#        72189
#        94957
#        115920
#        131334
#        146947
#        166413
#        185815
#        204084
#
# Disc length: 3093 seconds
#
# Revision: 0
# Processed by: cddbd v1.5.2PL0 Copyright (c) Steve Scherf et al.
# Submitted via: ExactAudioCopyFreeDBPlugin 1.0
#
DISCID=ae0c130c
DTITLE=Timo Gross - It's all about love
DYEAR=2014
DGENRE=Blues
TTITLE0=Bound To The Shadows
TTITLE1=Bitch
TTITLE2=Radiate
TTITLE3=King Of Nothing 
TTITLE4=Weep
TTITLE5=Flying Bird 
TTITLE6=Rusty Nail
TTITLE7=Lots Of Fun
TTITLE8=What Hurts You 
TTITLE9=Aloha
TTITLE10=The Sense Of Life
TTITLE11=It's All About Love 
EXTD=
EXTT0=
EXTT1=
EXTT2=
EXTT3=
EXTT4=
EXTT5=
EXTT6=
EXTT7=
EXTT8=
EXTT9=
EXTT10=
EXTT11=
PLAYORDER=
